<?xml version="1.0" encoding="UTF-8" standalone="no"?>
<svg
   width="32"
   height="32"
   fill="#000000"
   viewBox="0 0 256 256"
   version="1.1"
   id="svg1"
   sodipodi:docname="boat.svg"
   inkscape:version="1.4.3 (0d15f75042, 2025-12-25)"
   xmlns:inkscape="http://www.inkscape.org/namespaces/inkscape"
   xmlns:sodipodi="http://sodipodi.sourceforge.net/DTD/sodipodi-0.dtd"
   xmlns="http://www.w3.org/2000/svg"
   xmlns:svg="http://www.w3.org/2000/svg">
  <defs
     id="defs1" />
  <sodipodi:namedview
     id="namedview1"
     pagecolor="#ffffff"
     bordercolor="#000000"
     borderopacity="0.25"
     inkscape:showpageshadow="2"
     inkscape:pageopacity="0.0"
     inkscape:pagecheckerboard="0"
     inkscape:deskcolor="#d1d1d1"
     inkscape:zoom="31.348401"
     inkscape:cx="21.659797"
     inkscape:cy="18.772888"
     inkscape:window-width="3836"
     inkscape:window-height="2101"
     inkscape:window-x="0"
     inkscape:window-y="0"
     inkscape:window-maximized="0"
     inkscape:current-layer="svg1" />
  <path
     d="M221.06,110.59,208,106.23V56a16,16,0,0,0-16-16H136V24a8,8,0,0,0-16,0V40H64A16,16,0,0,0,48,56v50.23l-13.06,4.36A16,16,0,0,0,24,125.77V152c0,61.54,97.89,86.72,102.06,87.76a8,8,0,0,0,3.88,0C134.11,238.72,232,213.54,232,152V125.77A16,16,0,0,0,221.06,110.59ZM64,56H192v44.9L130.53,80.41a8,8,0,0,0-5.06,0L64,100.9Zm152,96c0,24.91-23.68,43-43.55,53.83A228.13,228.13,0,0,1,128,223.72,226.85,226.85,0,0,1,83.81,206C47.6,186.35,40,165.79,40,152V125.77L120,99.1V168a8,8,0,0,0,16,0V99.1l80,26.67Z"
     id="path1"
     style="stroke:none;stroke-opacity:1;fill:#ffffff;fill-opacity:1" />
</svg>
