<?xml version="1.0" encoding="UTF-8" standalone="no"?>
<svg
   viewBox="0 0 36 36"
   version="1.1"
   id="svg6"
   sodipodi:docname="launcher-icon.svg"
   width="72"
   height="72"
   inkscape:version="1.4.3 (0d15f75042, 2025-12-25)"
   xmlns:inkscape="http://www.inkscape.org/namespaces/inkscape"
   xmlns:sodipodi="http://sodipodi.sourceforge.net/DTD/sodipodi-0.dtd"
   xmlns="http://www.w3.org/2000/svg"
   xmlns:svg="http://www.w3.org/2000/svg">
  <defs
     id="defs6" />
  <sodipodi:namedview
     id="namedview6"
     pagecolor="#ffffff"
     bordercolor="#000000"
     borderopacity="0.25"
     inkscape:showpageshadow="2"
     inkscape:pageopacity="0.0"
     inkscape:pagecheckerboard="0"
     inkscape:deskcolor="#d1d1d1"
     inkscape:zoom="15.084945"
     inkscape:cx="21.412077"
     inkscape:cy="29.267592"
     inkscape:window-width="3836"
     inkscape:window-height="2101"
     inkscape:window-x="0"
     inkscape:window-y="0"
     inkscape:window-maximized="0"
     inkscape:current-layer="svg6" />
  <path
     fill="#a7a9ac"
     d="m 20,26 c 0,0.553 -0.447,1 -1,1 -0.552,0 -1,-0.447 -1,-1 V 1 c 0,-0.552 0.448,-1 1,-1 0.553,0 1,0.448 1,1 z"
     id="path1" />
  <path
     fill="#d1d3d4"
     d="m 3,24 h 31 v 8 H 12 C 6,32 3,24 3,24 Z"
     id="path2" />
  <path
     fill="#55acee"
     d="m 0,30 h 36 v 6 H 0 Z"
     id="path3" />
  <path
     fill="#ffac33"
     d="m 5,22 c 0,0 2,-5 5,-9 3,-4 8,-8 8,-8 0,0 -1,11 -1,16 v 1 c 0,0 -3,-1 -6,-1 -3,0 -6,1 -6,1 z"
     id="path4" />
  <path
     fill="#f4900c"
     d="m 20,2 c 0,0 6,6 9,11 2.771,4.618 4,9 4,9 0,0 -3,-1 -6,-1 -3,0 -6,1 -6,1 V 21 C 21,12 20,2 20,2 Z"
     id="path5" />
  <path
     fill="#e6e7e8"
     d="m 2,24 c -0.552,0 -1,0.447 -1,1 0,0.553 0.448,1 1,1 h 33 v -2 z"
     id="path6" />
</svg>
